<?xml version="1.0" encoding="utf-8"?>
<!DOCTYPE svg PUBLIC "-//W3C//DTD SVG 1.1//EN" "http://www.w3.org/Graphics/SVG/1.1/DTD/svg11.dtd">
<svg version="1.1" xmlns="http://www.w3.org/2000/svg" xmlns:xlink="http://www.w3.org/1999/xlink" x="0px" y="0px" viewBox="0 0 1000 1000" enable-background="new 0 0 1000 1000" xml:space="preserve">
<g><g transform="translate(0.000000,511.000000) scale(0.100000,-0.100000)"><path d="M4624.6,4997.8c-781.1-81.8-1535.5-413-2122.4-932.4c-619.5-545.9-1053-1316.8-1210.4-2146.9c-65.4-351.7-65.4-952.8,2.1-1316.8c57.3-314.9,206.5-774.9,347.6-1071.4c314.9-668.6,742.2-1247.2,1801.3-2435.2c730-817.9,1106.2-1282,1410.8-1733.9c128.8-190.1,157.4-196.3,253.5-45c229,363.9,707.5,954.9,1466,1809.5c703.4,793.3,954.9,1098,1241.1,1494.7c707.5,989.6,1030.5,2040.6,922.2,3020c-184,1686.8-1441.5,3032.2-3103.8,3318.5C5358.7,5005.9,4878.2,5024.3,4624.6,4997.8z"/></g></g>
</svg>